<?xml version="1.0" encoding="utf-8"?>
<!-- Generator: Adobe Illustrator 26.1.0, SVG Export Plug-In . SVG Version: 6.00 Build 0)  -->
<svg version="1.1" id="Layer_1" xmlns="http://www.w3.org/2000/svg" xmlns:xlink="http://www.w3.org/1999/xlink" x="0px" y="0px"
	 viewBox="0 0 500 500" style="enable-background:new 0 0 500 500;" xml:space="preserve">
<style type="text/css">
	.st0{fill:#FFFFFF;}
	.st1{fill:#B5DFEA;}
	.st2{opacity:0.55;fill:#90CEDD;enable-background:new    ;}
	.st3{fill:#79C9E8;}
	.st4{fill:#D7F0F9;}
	.st5{fill:#0582C1;}
	.st6{fill:#FFBF4D;}
	.st7{fill:#00668E;}
	.st8{fill:#05556D;}
	.st9{fill:#F98D3D;}
	.st10{fill:#ED701B;}
	.st11{fill:none;}
	.st12{fill:#EFAA3A;}
	.st13{opacity:0.29;fill:#F98D2B;enable-background:new    ;}
	.st14{fill:#49B4D6;}
	.st15{fill:#FF9F50;}
	.st16{fill:#F77E2D;}
	.st17{opacity:0.55;fill:url(#SVGID_1_);enable-background:new    ;}
</style>
<g id="BACKGROUND">
	<rect class="st0" width="500" height="500"/>
</g>
<g id="OBJECTS">
	<g>
		<g>
			<path class="st1" d="M453.1,434c7,0,12.6-6.1,12.7-13.8c0.5-38.2,3.3-94.6-61.9-110.1c-52.8-12.6-21.5-116.1-163.7-109.4
				c-102.1,4.8-75,99.7-154.3,107.6c-52.8,5.3-53.3,78.9-51.2,112.7c0.4,7.4,6,13.1,12.7,13.1L453.1,434L453.1,434z"/>
			<g>
				<path class="st2" d="M403.9,310c-52.8-12.6-21.5-116.1-163.7-109.4c-24.3,1.1-41.2,7.4-54.1,16.3c4.3-0.6,8.9-1.1,13.8-1.3
					c142.2-6.7,110.9,96.8,163.7,109.4c64.5,15.4,62.5,70.7,61.9,108.9h27.5c7,0,12.6-6.1,12.7-13.8
					C466.3,382,469.1,325.6,403.9,310z"/>
			</g>
			<g>
				<rect x="177.8" class="st3" width="2.2" height="180.6"/>
				<rect x="338.7" class="st3" width="2.2" height="208.4"/>
				<g>
					<path class="st4" d="M340.8,196.2l-166.9-21.5c-7.1-0.9-13.6,4.7-14.4,12.6l-12.5,117.7c-0.8,7.9,4.3,15,11.4,15.9l166.9,21.5
						c7.1,0.9,13.6-4.7,14.4-12.6l12.5-117.7C353,204.3,347.9,197.2,340.8,196.2z"/>
					<path class="st5" d="M351,223.8l1.2-11.7c0.8-7.9-4.3-15-11.4-15.9l-166.9-21.5c-7.1-0.9-13.6,4.7-14.4,12.6l-1.2,11.7
						L351,223.8z"/>
					<g>
						<path class="st3" d="M185.2,270.3l21.2-41.1c1.4-2.6,4-4.1,6.7-3.8l0,0c3.8,0.5,6.4,4.2,6,8.4l-4.4,41.6l0.2,0
							c2.6,0.3,4.5,2.9,4.2,5.8l0,0c-0.3,2.9-2.7,4.9-5.3,4.6l-0.2,0l-0.8,7.6c-0.3,3.1-2.9,5.3-5.7,4.9l0,0
							c-2.8-0.4-4.8-3.2-4.5-6.3l0.8-7.6l-15.2-2c-2.6-0.3-4.5-2.9-4.2-5.8l0.4-3.8C184.5,271.9,184.8,271.1,185.2,270.3z
							 M204.6,273.3l2.7-25.8c0-0.2-0.2-0.3-0.3-0.1l-12.5,24.3c-0.2,0.4,0,1,0.5,1l8.9,1.1C204.2,274,204.5,273.7,204.6,273.3z"/>
						<path class="st3" d="M278.6,282.3l21.2-41.1c1.4-2.6,4-4.1,6.7-3.8l0,0c3.8,0.5,6.4,4.2,6,8.4l-4.4,41.6l0.2,0
							c2.6,0.3,4.5,2.9,4.2,5.8l0,0c-0.3,2.9-2.7,4.9-5.3,4.6l-0.2,0l-0.8,7.6c-0.3,3.1-2.9,5.3-5.7,4.9l0,0
							c-2.8-0.4-4.8-3.2-4.5-6.3l0.8-7.6l-15.2-2c-2.6-0.3-4.5-2.9-4.2-5.8l0.4-3.8C277.9,283.9,278.2,283.1,278.6,282.3z
							 M298,285.4l2.7-25.8c0-0.2-0.2-0.3-0.3-0.1l-12.5,24.3c-0.2,0.4,0,1,0.5,1l8.9,1.1C297.6,286,297.9,285.7,298,285.4z"/>
						<path class="st3" d="M236.6,246.1c1.2-11.6,7.5-17.5,17.6-16.2c10.2,1.3,15,8.7,13.8,20.3l-4,37.8
							c-1.2,11.6-7.5,17.5-17.6,16.2c-10.2-1.3-15-8.7-13.8-20.3L236.6,246.1z M242.9,285.9c-0.5,5.2,1.3,7.4,4.6,7.8
							s5.6-1.3,6.1-6.5l4.2-39.2c0.5-5.2-1.3-7.4-4.6-7.8c-3.3-0.4-5.6,1.3-6.1,6.5L242.9,285.9z"/>
					</g>
					<g>
						<path class="st0" d="M177.8,191c-0.2,2.1-2,3.6-3.9,3.4c-1.9-0.2-3.3-2.2-3.1-4.3c0.2-2.1,2-3.6,3.9-3.4
							C176.7,187,178.1,188.9,177.8,191z"/>
						<path class="st3" d="M194.6,193.2c-0.2,2.1-2,3.6-3.9,3.4c-1.9-0.2-3.3-2.2-3.1-4.3c0.2-2.1,2-3.6,3.9-3.4
							C193.4,189.1,194.8,191.1,194.6,193.2z"/>
						<path class="st6" d="M212,195.4c-0.2,2.1-2,3.6-3.9,3.4c-1.9-0.2-3.3-2.2-3.1-4.3c0.2-2.1,2-3.6,3.9-3.4
							S212.2,193.3,212,195.4z"/>
					</g>
				</g>
			</g>
			<g>
				<path class="st7" d="M144.8,329.5c0,0-2.3,11-1.9,22.3c0.3,10.1-0.8,76.4-0.8,76.4h7.3c0,0,10.5-52,10.9-56.1
					c0.4-4.1,5.7-45.1,5.7-45.1L144.8,329.5z"/>
				<path class="st5" d="M149.7,326.5c0,0,1.7,14.2,4.6,24.2s17,77.5,17,77.5h7.3c0,0-1.4-52-1.9-56.1c-0.5-4.1-4.2-45.1-4.2-45.1
					L149.7,326.5z"/>
				<path class="st5" d="M171.9,428.2v5.7h14c0.8,0,1.1-1.1,0.4-1.6c-2-1.5-5.3-3.6-8.4-4L171.9,428.2L171.9,428.2z"/>
				<path class="st5" d="M142.5,428.2v5.7h14c0.8,0,1.1-1.1,0.4-1.6c-2-1.5-5.3-3.6-8.4-4L142.5,428.2L142.5,428.2z"/>
				<g>
					<path class="st7" d="M167.8,260.5c0,0,4.8-8.1-0.7-8.8c-4.2-0.6-6,0.8-6,0.8s-4.9-0.6-7.6,2c-1.8,1.8-8.6,15.3,2.3,20.2
						c10.9,4.9,8.6-7.7,8.6-7.7L167.8,260.5z"/>
					<path class="st8" d="M167.1,251.7c-4.2-0.6-6,0.8-6,0.8s-4.9-0.6-7.6,2c-1.8,1.8-8.6,15.3,2.3,20.2c5.1,2.3,7.3,0.8,8.2-1.5
						c-10.3,3.2-11.4-10.5-9.7-14.4c1.7-4,5.9-2.1,5.9-2.1c1.6-4.5,6.9-4,9.1-3.7C168.9,252.3,168.2,251.9,167.1,251.7z"/>
					<path class="st9" d="M161,264.5c0,0-1.4-1.6-2.5,0c-1.1,1.6-0.4,5.1,1.4,5.3c0,0-0.5,5.1-4.1,4.9v4.1h8.4v-3.1
						c0,0,5.2-2.4,5-7.1c-0.2-4.7-1.4-8.1-1.4-8.1S164.9,264.1,161,264.5z"/>
					<path class="st10" d="M162.3,277c0.8,0.4,0.7,1,0.7,1.8h1.2v-3.1c0,0-2,0.7-5-1.2C159.2,274.5,160.9,276.4,162.3,277z"/>
				</g>
				<path class="st9" d="M164,256.9c0,0-4.3-1.9-4.8-0.5c-0.3,0.9,0.5,1.7,1.7,2.6l-1,0.2c-0.2,0-0.3,0.4-0.1,0.5
					c0.3,0.3,1.1,0.4,2.7,0.5L164,256.9z"/>
				<g>
					<polygon class="st11" points="138.2,308.9 144,329.5 143.9,328.5 144,329.5 146,299.4 					"/>
					<path class="st6" d="M195,268.9c-8.3-6.8-30.9-12.2-30.9-12.2l-1.9,3.7c0,0,20.5,8.8,19.2,10.1c-0.8,0.8-10.8,5.8-14.2,7.5
						c-0.7,0.4-1.5,0.5-2.3,0.5l-10.4-0.1c0,0-7.5-1-13.4,6.5c-5.3,6.7-14.2,22.2-14.2,22.2l15.1,24.5l1.7,2.7l0,0l0,0.2
						c0,0,0.5,0.1,1.5,0.2c4.9,0.5,20.4,1.9,28.6-0.1l0.2-0.1l-0.4-40.2c13.1-11.5,19.4-20.3,21.7-23.1
						C195.8,270.7,195.7,269.5,195,268.9z M144.3,323.7l-1.5-3.5l-4.7-11.3l7.8-9.6l-1.4,21.1L144.3,323.7z"/>
				</g>
				<polygon class="st12" points="142.9,320.2 144.3,323.7 143.6,334.4 143.6,334.4 141.9,331.7 				"/>
				<path class="st13" d="M170.1,293.1c-1.4,1.1-1,11.1-1.4,17.3c-0.6,10.4-1.1,19.4-0.7,25.2c2.1-0.2,4.1-0.4,5.8-0.8l0.2-0.1
					l-0.4-40.2c13.1-11.5,19.4-20.3,21.7-23.1c0.6-0.7,0.5-1.9-0.2-2.5C195,268.9,184.6,281.4,170.1,293.1z"/>
				<path class="st7" d="M176.7,372.2c-0.4-3-2.4-25.1-3.5-37.3l-5.3,0.6c0,0,7.7,69.8,8.2,92.7h2.4
					C178.6,428.2,177.2,376.3,176.7,372.2z"/>
				<g>
					<path class="st5" d="M142.9,265.6l-1.6-3.1c0.8-1.7,1.3-3.5,1.3-5.6c0-6.6-4.8-11.9-10.8-11.9c-6,0-10.8,5.3-10.8,11.9
						c0,6.6,4.8,11.9,10.8,11.9c3,0,5.7-1.4,7.7-3.5L142.9,265.6z"/>
					<g>
						<path class="st0" d="M126.2,255.8h0.4v1.7c0,0.5,0.1,0.7,0.5,0.7c0.3,0,0.4-0.1,0.7-0.5v-1.9h0.4v2.7h-0.3l0-0.4h0
							c-0.2,0.3-0.5,0.5-0.8,0.5c-0.5,0-0.8-0.4-0.8-1.1L126.2,255.8L126.2,255.8z"/>
						<path class="st0" d="M129.9,258.8v0.9h-0.4v-3.9h0.3l0,0.3h0c0.2-0.2,0.5-0.4,0.8-0.4c0.6,0,1,0.5,1,1.4
							c0,0.9-0.5,1.5-1.1,1.5c-0.2,0-0.5-0.1-0.7-0.3L129.9,258.8z M130.5,258.2c0.4,0,0.7-0.4,0.7-1.1c0-0.6-0.2-1-0.6-1
							c-0.2,0-0.4,0.1-0.7,0.4v1.4C130.1,258.1,130.3,258.2,130.5,258.2z"/>
						<path class="st0" d="M132.7,257.9c0.2,0.2,0.4,0.3,0.7,0.3c0.3,0,0.5-0.2,0.5-0.4c0-0.3-0.3-0.4-0.6-0.5
							c-0.3-0.1-0.7-0.3-0.7-0.8c0-0.4,0.3-0.8,0.8-0.8c0.3,0,0.6,0.1,0.8,0.3l-0.2,0.3c-0.2-0.1-0.3-0.2-0.6-0.2
							c-0.3,0-0.4,0.2-0.4,0.4c0,0.3,0.3,0.4,0.5,0.5c0.4,0.1,0.7,0.3,0.7,0.8c0,0.4-0.3,0.8-0.9,0.8c-0.3,0-0.7-0.2-0.9-0.4
							L132.7,257.9z"/>
						<path class="st0" d="M135.6,257.9c0.2,0,0.3,0.1,0.3,0.4c0,0.2-0.1,0.3-0.3,0.3c-0.2,0-0.3-0.1-0.3-0.3
							C135.3,258,135.4,257.9,135.6,257.9z"/>
						<path class="st0" d="M137.4,257.9c0.2,0,0.3,0.1,0.3,0.4c0,0.2-0.1,0.3-0.3,0.3c-0.2,0-0.3-0.1-0.3-0.3
							C137.1,258,137.2,257.9,137.4,257.9z"/>
					</g>
				</g>
			</g>
			<g>
				<g>
					<g>
						<path class="st3" d="M101.5,408.6c0,0-2.3-2.3-0.7-11.2s5.4-17.3,3.5-26.9c-1.9-9.6-16.7-33.8-16.8-35.4
							c-0.1-1.6-4.6,28.2,3.1,39.9c7.7,11.7,8.6,15.8,8.3,22c-0.3,6.2,0.1,11.1,0.9,12.6L101.5,408.6z"/>
						<path class="st14" d="M100.1,390.8c-0.9,3.9-1.4,13.8,0,16.2c0.1,0.2,0.3,0.1,0.6-0.3c-0.4-1.6-0.7-4.5,0.1-9.3
							c1.5-8.8,5.4-17.3,3.5-26.9c-1.9-9.6-16.7-33.8-16.8-35.4c0,0,2.2,20.2,9.8,34C102.7,379,101,386.8,100.1,390.8z"/>
					</g>
					<g>
						<path class="st3" d="M104.2,408c0,0-4.4-12,3-22.4c7.4-10.4,19.2-23.7,19.4-29c0,0,3,25.1-6.6,32.2
							c-9.6,7.1-16.4,8.2-14.7,19.2L104.2,408z"/>
						<path class="st14" d="M114.6,383.7c-10.7,8.6-11.6,18.5-9.9,23.1c0.1,0.4,0.4,0.6,0.7,0.7c-1.4-10.5,5.2-11.7,14.7-18.8
							c9.6-7.1,6.6-32.2,6.6-32.2S125.3,375.1,114.6,383.7z"/>
					</g>
					<g>
						<path class="st3" d="M97.1,408.2c0,0,1.4-6.4,0.7-13.2s-7.2-10.7-13.3-18c-3.1-3.7-4-23.4-2.1-25.3c0,0-10.7,14.3-9.1,24.8
							c1.7,10.5,19.1,17.3,20.8,22.4c1.6,5.1,1.5,9.3,1.5,9.3L97.1,408.2z"/>
						<g>
							<path class="st14" d="M78.7,357.4c-3.5,10.6,0.1,23.4,11.9,31.3c8.7,5.9,5.9,18,5.9,18l1.4-4.8c0.1-2.1,0.1-4.5-0.1-7
								c-0.7-6.9-7.2-10.7-13.3-18c-3-3.6-4-22.1-2.3-25C81.6,352.7,80.2,354.7,78.7,357.4z"/>
							<path class="st14" d="M82.1,352c0.1-0.2,0.2-0.3,0.2-0.3C82.2,351.8,82.2,351.9,82.1,352z"/>
						</g>
					</g>
					<g>
						<path class="st3" d="M106.5,407.4c0,0,2.5-10.3,8.7-11.7c6.2-1.4,13.3-11.5,13.7-13.5C129,382.3,127.9,401.4,106.5,407.4z"/>
						<path class="st14" d="M114.9,399.2c-3.8,2.1-5.4,4.9-6,7.5c19.1-6.8,20-24.4,20-24.4c-0.1,0.4-0.4,1.1-1,2
							C126.1,387.9,121.6,395.5,114.9,399.2z"/>
					</g>
				</g>
				<path class="st6" d="M119.9,403.6H87.4l3.9,26.8c0.3,2,1.9,3.5,3.7,3.5h17.3c1.9,0,3.5-1.5,3.7-3.5L119.9,403.6z"/>
				<polygon class="st15" points="119.3,408.1 119.9,403.6 87.4,403.6 88.1,408.1 				"/>
				<path class="st15" d="M112.1,403.6l-3.9,26.8c-0.3,2-1.9,3.5-3.7,3.5h7.9c1.9,0,3.5-1.5,3.7-3.5l3.9-26.8H112.1z"/>
			</g>
			<g>
				<rect x="197.2" y="355.9" class="st6" width="146.9" height="32.9"/>
				<rect x="197.2" y="355.9" class="st13" width="146.9" height="8"/>
				<polygon class="st16" points="210,355.9 223.4,355.9 219.8,363.9 206.4,363.9 				"/>
				<polygon class="st16" points="240.2,355.9 253.6,355.9 250,363.9 236.6,363.9 				"/>
				<polygon class="st16" points="270.4,355.9 283.8,355.9 280.2,363.9 266.8,363.9 				"/>
				<polygon class="st16" points="300.6,355.9 314,355.9 310.4,363.9 297,363.9 				"/>
				<polygon class="st16" points="344.1,355.9 344.1,356.1 340.6,363.9 327.2,363.9 330.8,355.9 				"/>
				<rect x="215.5" y="388.8" class="st3" width="10.4" height="45"/>
				<rect x="223.5" y="388.8" class="st14" width="2.4" height="45"/>
				<rect x="316.2" y="388.8" class="st3" width="10.4" height="45"/>
				<rect x="323.5" y="388.8" class="st14" width="3.1" height="45"/>
				<rect x="215.5" y="388.8" class="st14" width="10.4" height="5.7"/>
				<rect x="316.2" y="388.8" class="st14" width="10.4" height="5.7"/>
				<rect x="215.5" y="350.8" class="st3" width="10.4" height="5.1"/>
				<rect x="223.5" y="350.8" class="st14" width="2.4" height="5.1"/>
				<rect x="316.2" y="350.8" class="st3" width="10.4" height="5.1"/>
				<rect x="323.5" y="350.8" class="st14" width="3.1" height="5.1"/>
				<rect x="215.5" y="355.2" class="st14" width="10.4" height="0.6"/>
				<rect x="316.2" y="355.2" class="st14" width="10.4" height="0.6"/>
				<g>
					<g>
						<polygon class="st5" points="223.4,355.9 208.6,388.8 197.2,388.8 197.2,384.3 210,355.9 						"/>
						<polygon class="st5" points="240.2,355.9 225.4,388.8 238.8,388.8 253.6,355.9 						"/>
						<polygon class="st5" points="283.8,355.9 269,388.8 255.6,388.8 270.4,355.9 						"/>
						<polygon class="st5" points="314,355.9 299.2,388.8 285.8,388.8 300.6,355.9 						"/>
						<polygon class="st5" points="330.8,355.9 316,388.8 329.4,388.8 344.1,356.1 						"/>
					</g>
				</g>
				<g>
					<g>
						<polygon class="st7" points="223.4,355.9 219.8,363.9 206.4,363.9 210,355.9 						"/>
						<polygon class="st7" points="253.6,355.9 250,363.9 236.6,363.9 240.2,355.9 						"/>
						<polygon class="st7" points="283.8,355.9 280.2,363.9 266.8,363.9 270.4,355.9 						"/>
						<polygon class="st7" points="314,355.9 310.4,363.9 297,363.9 300.6,355.9 						"/>
						<polygon class="st7" points="344.1,356.1 340.6,363.9 327.2,363.9 330.8,355.9 						"/>
					</g>
				</g>
				
					<linearGradient id="SVGID_1_" gradientUnits="userSpaceOnUse" x1="271.415" y1="103.524" x2="271.415" y2="130.0502" gradientTransform="matrix(1 0 0 -1 0 502)">
					<stop  offset="0" style="stop-color:#FFFFFF"/>
					<stop  offset="1" style="stop-color:#FFFFFF;stop-opacity:0"/>
				</linearGradient>
				<rect x="201.3" y="370.2" class="st17" width="140.2" height="16.5"/>
				<ellipse class="st6" cx="220.4" cy="343.6" rx="9.2" ry="10.2"/>
				<path class="st5" d="M224.6,343.6c0-2.5-1.9-4.6-4.2-4.6s-4.2,2.1-4.2,4.6s1.9,4.6,4.2,4.6S224.6,346.2,224.6,343.6z"/>
				<ellipse class="st6" cx="321.3" cy="343.6" rx="9.2" ry="10.2"/>
				<path class="st5" d="M325.5,343.6c0-2.5-1.9-4.6-4.2-4.6s-4.2,2.1-4.2,4.6s1.9,4.6,4.2,4.6S325.5,346.2,325.5,343.6z"/>
			</g>
			<g>
				<path class="st6" d="M399.7,430.4h-46.8l7.2-19.1v0l2.9-7.7l0.8-2.1l1.3-3.4l0.3-0.7l2.9-7.7l0.5-1.4l5.1-13.7
					c0.9-2.5,4.1-2.5,5,0l5.1,13.7l0.5,1.4l2.9,7.7l0.3,0.7l1.3,3.4l0.8,2.1l2.9,7.7v0L399.7,430.4z"/>
				<polygon class="st13" points="356,422.2 352.9,430.4 399.7,430.4 396.6,422.2 				"/>
				<rect x="349.2" y="425.5" class="st3" width="53.6" height="8.4"/>
				<rect x="391.2" y="425.5" class="st14" width="11.6" height="8.4"/>
				<g>
					<path class="st13" d="M397.9,425.5h-6.6l-5.3-14.2v0l-2.9-7.7l-0.8-2.1L381,398l-0.3-0.7l-2.9-7.7l-0.5-1.4l-4.3-11.5l0.8-2.2
						c0.9-2.5,4.1-2.5,5,0l5.1,13.7l0.5,1.4l2.9,7.7l0.3,0.7l1.3,3.4l0.8,2.1l2.9,7.7v0L397.9,425.5z"/>
					<g>
						<polygon class="st5" points="387.3,397.3 365.3,397.3 368.2,389.6 384.4,389.6 						"/>
						<polygon class="st5" points="392.6,411.2 392.6,411.3 360.1,411.3 360.1,411.2 363,403.5 389.7,403.5 						"/>
						<polygon class="st7" points="387.3,397.3 380.7,397.3 377.8,389.6 384.4,389.6 						"/>
						<polygon class="st7" points="392.6,411.2 392.6,411.3 385.9,411.3 385.9,411.2 383.1,403.5 389.7,403.5 						"/>
					</g>
				</g>
			</g>
			<g>
				<path class="st4" d="M101.6,242.8c3.5,0,6.5-2.8,7-6.6c0.1-0.7,0.1-1.4,0.1-2.1c0-8.5-6.2-15.4-14-15.4c-0.3,0-0.6,0-0.9,0
					c-0.6-8.4-7-15-14.8-15c-8.2,0-14.8,7.3-14.8,16.4c0,0.4,0,0.8,0,1.2c-2.3-1.4-5-2.2-7.9-2.1c-7.4,0.4-13.6,6.9-14.1,15.1
					c0,0.1,0,0.1,0,0.2c-0.2,4.5,3,8.2,7.1,8.2L101.6,242.8L101.6,242.8z"/>
				<path class="st4" d="M434.7,254.9c11,0,11.6-18.3,0.6-18.9c-0.3,0-0.6,0-0.9,0c-2,0-3.9,0.3-5.6,1c-1.5-9.9-9.3-17.5-18.7-17.5
					c-9.6,0-17.6,7.9-18.8,18.1c-2.3-1.2-4.8-1.9-7.5-1.9c-1.5,0-3,0.2-4.4,0.6c-9.7,2.7-7.6,18.6,2.3,18.6L434.7,254.9L434.7,254.9
					z"/>
				<path class="st4" d="M302.1,164.7c11,0,11.6-18.3,0.6-18.9c-0.3,0-0.6,0-0.9,0c-2,0-3.9,0.3-5.6,1c-1.5-9.9-9.3-17.5-18.7-17.5
					c-9.6,0-17.5,7.9-18.8,18.1c-2.3-1.2-4.8-1.9-7.5-1.9c-1.5,0-3,0.2-4.4,0.6c-9.6,2.7-7.6,18.6,2.3,18.6L302.1,164.7L302.1,164.7
					z"/>
				<ellipse class="st6" cx="126.4" cy="169.3" rx="26.5" ry="29.2"/>
				<path class="st15" d="M126.7,140.2c7.2,5.2,11.9,14.2,11.9,24.4c0,16.1-11.8,29.2-26.5,29.2c-0.1,0-0.1,0-0.2,0
					c4.2,3,9.1,4.8,14.5,4.8c14.6,0,26.5-13.1,26.5-29.2C152.9,153.3,141.2,140.3,126.7,140.2z"/>
			</g>
		</g>
	</g>
</g>
</svg>
